<?xml version="1.0" standalone="no"?><!DOCTYPE svg PUBLIC "-//W3C//DTD SVG 1.1//EN" "http://www.w3.org/Graphics/SVG/1.1/DTD/svg11.dtd"><svg t="1535790728320" class="icon" style="" viewBox="0 0 1024 1024" version="1.1" xmlns="http://www.w3.org/2000/svg" p-id="2687" xmlns:xlink="http://www.w3.org/1999/xlink" width="32" height="32"><defs><style type="text/css"></style></defs><path d="M887.436768 68.269669h-68.237733V14.075813A14.359792 14.359792 0 0 0 804.724364 0.003217H765.378534a14.173115 14.173115 0 0 0-14.474671 14.072596v54.179496H273.067417V14.075813A14.359792 14.359792 0 0 0 258.592747 0.003217H219.275636a14.173115 14.173115 0 0 0-14.474671 14.072596v54.179496H136.505793a136.418026 136.418026 0 0 0-136.504185 136.418026v682.894279a136.561624 136.561624 0 0 0 136.504185 136.418026H887.436768a136.418026 136.418026 0 0 0 136.504185-136.418026V204.687695a136.575984 136.575984 0 0 0-136.504185-136.418026z m68.237732 819.297945A68.122854 68.122854 0 0 1 887.436768 955.733548H136.419634a68.295172 68.295172 0 0 1-68.237732-68.165934V341.335478h887.435159z m0-614.498588h-887.435159v-68.381331a68.122854 68.122854 0 0 1 68.237733-68.151574h68.295171v54.193856a14.359792 14.359792 0 0 0 14.474671 14.072596h39.317111a14.173115 14.173115 0 0 0 14.474671-14.072596V136.536121h477.893885v54.193856a14.359792 14.359792 0 0 0 14.47467 14.072596h39.317111a14.173115 14.173115 0 0 0 14.474671-14.072596V136.536121H887.436768a68.309532 68.309532 0 0 1 68.237732 68.151574v68.381331z m0 0" p-id="2688" fill="#ffffff"></path></svg>