<?xml version="1.0" standalone="no"?><!DOCTYPE svg PUBLIC "-//W3C//DTD SVG 1.1//EN" "http://www.w3.org/Graphics/SVG/1.1/DTD/svg11.dtd"><svg t="1535791698549" class="icon" style="" viewBox="0 0 1265 1024" version="1.1" xmlns="http://www.w3.org/2000/svg" p-id="9549" xmlns:xlink="http://www.w3.org/1999/xlink" width="39.53125" height="32"><defs><style type="text/css"></style></defs><path d="M1194.17765 636.69914l0-90.95702C1194.17765 246.464183 947.713467 0 645.501433 0l-26.406877 0C316.882521 0 73.352436 246.464183 73.352436 548.676218l0 88.022923C29.340974 666.040115 0 739.39255 0 824.481375c0 111.495702 49.879656 199.518625 111.495702 199.518625 61.616046 0 111.495702-90.95702 111.495702-199.518625 0-79.22063-26.406877-146.704871-61.616046-178.979943l0-96.825215C161.375358 293.409742 366.762178 88.022923 619.094556 88.022923L645.501433 88.022923c252.332378 0 460.653295 205.386819 460.653295 460.653295l0 93.891117c-38.143266 32.275072-64.550143 99.759312-64.550143 181.91404 0 111.495702 49.879656 199.518625 111.495702 199.518625 61.616046 0 111.495702-90.95702 111.495702-199.518625C1264.595989 739.39255 1235.255014 666.040115 1194.17765 636.69914z" p-id="9550" fill="#e6e6e6"></path></svg>