<?xml version="1.0" standalone="no"?><!DOCTYPE svg PUBLIC "-//W3C//DTD SVG 1.1//EN" "http://www.w3.org/Graphics/SVG/1.1/DTD/svg11.dtd"><svg t="1535790850986" class="icon" style="" viewBox="0 0 1024 1024" version="1.1" xmlns="http://www.w3.org/2000/svg" p-id="4887" xmlns:xlink="http://www.w3.org/1999/xlink" width="32" height="32"><defs><style type="text/css"></style></defs><path d="M940.146 905.692H89.355c-40.241 0-72.981-32.74-72.981-72.984V271.98c0-40.244 32.74-72.984 72.981-72.984h850.792c40.244 0 72.984 32.74 72.984 72.984v560.727c-0.001 40.245-32.741 72.985-72.985 72.985zM89.355 225.366c-25.702 0-46.612 20.91-46.612 46.615v560.727c0 25.705 20.91 46.615 46.612 46.615h850.792c25.705 0 46.615-20.91 46.615-46.615V271.98c0-25.705-20.91-46.615-46.615-46.615H89.355z" fill="#ffffff" p-id="4888"></path><path d="M572.764 396.216h311.157v15.162H572.764zM216.631 197.804L663.26 48.74l4.8 14.382-446.627 149.064zM614.955 538.335h268.966v15.162H614.955zM572.764 680.455h311.157v15.162H572.764z" fill="#ffffff" p-id="4889"></path><path d="M305.51 534.589m-205.49 0a205.49 205.49 0 1 0 410.98 0 205.49 205.49 0 1 0-410.98 0Z" fill="#ffffff" p-id="4890"></path><path d="M305.51 753.079c-58.361 0-113.228-22.727-154.496-63.994-41.267-41.268-63.994-96.135-63.994-154.496 0-58.36 22.727-113.228 63.994-154.495 41.268-41.267 96.135-63.994 154.496-63.994s113.228 22.727 154.496 63.994C501.273 421.361 524 476.229 524 534.589c0 58.361-22.727 113.229-63.994 154.496-41.268 41.268-96.135 63.994-154.496 63.994z m0-410.979c-106.139 0-192.49 86.35-192.49 192.489 0 106.14 86.351 192.49 192.49 192.49S498 640.729 498 534.589C498 428.45 411.649 342.1 305.51 342.1z" fill="#ffffff" p-id="4891"></path></svg>