<?xml version="1.0" standalone="no"?><!DOCTYPE svg PUBLIC "-//W3C//DTD SVG 1.1//EN" "http://www.w3.org/Graphics/SVG/1.1/DTD/svg11.dtd"><svg t="1536039543714" class="icon" style="" viewBox="0 0 1024 1024" version="1.1" xmlns="http://www.w3.org/2000/svg" p-id="2752" xmlns:xlink="http://www.w3.org/1999/xlink" width="32" height="32"><defs><style type="text/css"></style></defs><path d="M383.8 654.9l128 143.5 128-143.5 80.5-90.2c18.4-20.6 3.8-53.3-23.9-53.3H575.6c0.2-1.8 0.3-3.7 0.3-5.5V161.5c0-35.2-28.8-64-64-64s-64 28.8-64 64v344.4c0 1.9 0.1 3.7 0.3 5.5h-121c-27.6 0-42.3 32.7-23.9 53.3l80.5 90.2z" p-id="2753" fill="#ffffff"></path><path d="M863.7 639.2h-31.8v160.4c0 35.2-28.8 64-64 64H255.8c-35.2 0-64-28.8-64-64V639.2h-30c-35.2 0-64 28.8-64 64v160c0 35.2 28.8 64 64 64h702c35.2 0 64-28.8 64-64v-160c-0.1-35.2-28.9-64-64.1-64z" p-id="2754" fill="#ffffff"></path></svg>