<?xml version="1.0" standalone="no"?><!DOCTYPE svg PUBLIC "-//W3C//DTD SVG 1.1//EN" "http://www.w3.org/Graphics/SVG/1.1/DTD/svg11.dtd"><svg t="1536039480611" class="icon" style="" viewBox="0 0 1169 1024" version="1.1" xmlns="http://www.w3.org/2000/svg" p-id="1920" xmlns:xlink="http://www.w3.org/1999/xlink" width="36.53125" height="32"><defs><style type="text/css"></style></defs><path d="M1066.669021 101.025244A351.53737 351.53737 0 0 0 584.675626 90.428324a351.53737 351.53737 0 0 0-481.992394 10.59692 344.227425 344.227425 0 0 0 0 490.031335L506.476211 991.194585a109.62718 109.62718 0 0 0 156.40083 0l403.79198-399.772009a344.227425 344.227425 0 0 0 0-490.397332z m-52.255609 438.50672L610.621432 939.669971a36.542727 36.542727 0 0 1-51.889612 0l-404.157976-400.137007a271.874966 271.874966 0 0 1 0-386.983105 277.355925 277.355925 0 0 1 380.405154-6.211954l49.697628 42.753681 49.331631-42.753681a277.355925 277.355925 0 0 1 380.405155 8.03894 271.874966 271.874966 0 0 1 0 385.155119z" fill="#ffffff" p-id="1921"></path><path d="M338.016471 182.879632a155.304838 155.304838 0 0 0-155.304838 155.304838 18.270863 18.270863 0 0 0 36.541727 0A118.762112 118.762112 0 0 1 338.017471 219.422359a18.270863 18.270863 0 0 0 0-36.542727z" fill="#ffffff" p-id="1922"></path></svg>