<?xml version="1.0" standalone="no"?><!DOCTYPE svg PUBLIC "-//W3C//DTD SVG 1.1//EN" "http://www.w3.org/Graphics/SVG/1.1/DTD/svg11.dtd"><svg t="1536040258550" class="icon" style="" viewBox="0 0 1024 1024" version="1.1" xmlns="http://www.w3.org/2000/svg" p-id="7845" xmlns:xlink="http://www.w3.org/1999/xlink" width="32" height="32"><defs><style type="text/css"></style></defs><path d="M499.712 138.382222H940.942222a28.444444 28.444444 0 0 1 28.444445 28.444445v26.140444a28.444444 28.444444 0 0 1-28.444445 28.444445H499.712a28.444444 28.444444 0 0 1-28.444444-28.444445v-26.168889a28.444444 28.444444 0 0 1 28.444444-28.444444zM56.888889 581.176889h884.081778a28.444444 28.444444 0 0 1 28.444444 28.444444v26.168889a28.444444 28.444444 0 0 1-28.444444 28.444445H56.888889a28.444444 28.444444 0 0 1-28.444445-28.444445v-26.168889a28.444444 28.444444 0 0 1 28.444445-28.444444z m0 359.822222h884.081778a28.444444 28.444444 0 0 1 28.444444 28.444445V995.555556a28.444444 28.444444 0 0 1-28.444444 28.444444H56.888889a28.444444 28.444444 0 0 1-28.444445-28.444444v-26.140445a28.444444 28.444444 0 0 1 28.444445-28.444444zM29.070222 359.537778L28.444444 193.735111 30.264889 27.050667c0-10.126222 0.654222-19.029333 3.441778-21.987556 6.741333-7.111111 20.48-6.343111 28.273777 0l237.511112 176.412445a14.478222 14.478222 0 0 1 5.688888 12.288 14.506667 14.506667 0 0 1-5.688888 12.231111l-237.511112 176.440889c-7.793778 6.343111-21.418667 7.054222-28.245333 0-3.185778-3.271111-4.664889-8.988444-4.664889-22.897778z" p-id="7846" fill="#ffffff"></path></svg>