<?xml version="1.0" standalone="no"?><!DOCTYPE svg PUBLIC "-//W3C//DTD SVG 1.1//EN" "http://www.w3.org/Graphics/SVG/1.1/DTD/svg11.dtd"><svg t="1536039602232" class="icon" style="" viewBox="0 0 1024 1024" version="1.1" xmlns="http://www.w3.org/2000/svg" p-id="5213" xmlns:xlink="http://www.w3.org/1999/xlink" width="32" height="32"><defs><style type="text/css"></style></defs><path d="M874.01472 61.44H148.224C100.11648 61.44 61.44 99.28704 61.44 145.69472v578.51904c0 46.40768 38.67648 84.25472 86.784 84.25472h146.59584v117.1456c0 11.264 7.19872 22.528 17.54112 29.2864l-6.74816 3.60448 20.6848 2.70336 0.45056 1.35168h11.24352c10.79296 0 23.83872-6.7584 30.57664-13.5168l144.7936-140.57472h361.55392c47.6672 0 86.784-37.84704 86.784-84.25472V145.69472C960.79872 99.28704 922.13248 61.44 874.01472 61.44zM483.6864 735.92832c-2.2528 1.35168-4.94592 3.60448-9.44128 8.11008L364.52352 848.11776v-79.74912c0-18.47296-15.73888-33.34144-34.62144-33.34144H173.86496c-23.83872 0-43.17184-18.0224-43.17184-40.09984V178.13504c0-22.07744 19.33312-40.09984 43.17184-40.09984h674.5088c23.83872 0 43.18208 18.0224 43.18208 40.09984V694.4768c0 22.07744-19.34336 40.09984-43.17184 40.09984H485.9392l-2.2528 1.35168z" p-id="5214" fill="#ffffff"></path><path d="M511.11936 363.3152a62.48448 62.48448 0 0 0-42.72128 17.12128c-11.23328 11.264-17.98144 26.13248-17.98144 41.90208 0 15.7696 6.2976 30.63808 17.98144 41.90208a62.48448 62.48448 0 0 0 42.72128 17.12128 62.48448 62.48448 0 0 0 42.72128-17.12128 58.71616 58.71616 0 0 0 17.99168-41.90208c0-15.7696-6.7584-31.08864-17.99168-41.90208a62.48448 62.48448 0 0 0-42.72128-17.12128z m207.3088 0c16.1792 0 31.47776 6.30784 42.72128 17.12128 11.23328 11.264 17.98144 26.13248 17.98144 41.90208 0 15.7696-6.74816 30.63808-17.98144 41.90208a62.48448 62.48448 0 0 1-42.72128 17.12128 62.48448 62.48448 0 0 1-42.72128-17.12128c-11.69408-10.81344-17.99168-26.13248-17.99168-41.90208 0-15.7696 6.74816-31.08864 17.99168-41.90208a62.48448 62.48448 0 0 1 42.72128-17.12128z m-414.6176 0c15.74912 0 31.488 6.30784 42.73152 17.12128 11.68384 10.81344 17.98144 26.13248 17.98144 41.90208 0 15.7696-6.74816 30.63808-17.98144 41.90208a62.48448 62.48448 0 0 1-42.72128 17.12128 62.48448 62.48448 0 0 1-42.72128-17.12128 58.71616 58.71616 0 0 1-17.99168-41.90208c0-15.7696 6.7584-31.08864 17.99168-41.90208a62.48448 62.48448 0 0 1 42.72128-17.12128z" p-id="5215" fill="#ffffff"></path></svg>