<?xml version="1.0" standalone="no"?><!DOCTYPE svg PUBLIC "-//W3C//DTD SVG 1.1//EN" "http://www.w3.org/Graphics/SVG/1.1/DTD/svg11.dtd"><svg t="1536039983711" class="icon" style="" viewBox="0 0 1024 1024" version="1.1" xmlns="http://www.w3.org/2000/svg" p-id="6436" xmlns:xlink="http://www.w3.org/1999/xlink" width="32" height="32"><defs><style type="text/css"></style></defs><path d="M512 1023.840025C229.270843 1023.840025 0.079988 794.649169 0.079988 511.920012 0.079988 229.190856 229.270843 0 512 0 794.729157 0 1023.920012 229.190856 1023.920012 511.920012 1023.920012 794.649169 794.729157 1023.840025 512 1023.840025ZM512 32.005666C246.942749 32.005666 32.074988 246.873426 32.074988 511.930677 32.074988 776.987929 246.942749 991.855689 512 991.855689 777.057251 991.855689 991.925012 776.987929 991.925012 511.930677 991.925012 246.873426 777.057251 32.005666 512 32.005666ZM713.696485 539.926303C697.11241 549.738103 428.290413 705.532427 408.666812 716.453387 394.290392 724.462803 373.461647 712.912607 373.461647 694.696787 373.461647 676.203677 373.461647 351.667719 373.461647 338.912378 373.461647 322.370963 391.805447 306.661417 408.666812 316.334573 422.179368 324.088028 690.649419 479.477082 713.696485 492.861657 728.83012 501.649617 728.57416 531.138343 713.696485 539.926303Z" p-id="6437" fill="#ffffff"></path></svg>