<?xml version="1.0" standalone="no"?><!DOCTYPE svg PUBLIC "-//W3C//DTD SVG 1.1//EN" "http://www.w3.org/Graphics/SVG/1.1/DTD/svg11.dtd"><svg t="1536039796645" class="icon" style="" viewBox="0 0 1300 1024" version="1.1" xmlns="http://www.w3.org/2000/svg" p-id="10623" xmlns:xlink="http://www.w3.org/1999/xlink" width="40.625" height="32"><defs><style type="text/css"></style></defs><path d="M1121.964311 1023.993081a55.350977 55.350977 0 0 1-39.299194-94.096661l30.719793-30.996548h-136.716915a379.43095 379.43095 0 0 1-239.392977-85.794015 55.350977 55.350977 0 1 1 70.018987-85.794015 264.854427 264.854427 0 0 0 169.37399 60.886076H1245.396991a55.350977 55.350977 0 0 1 39.299193 94.096661L1162.370525 1007.387788a55.350977 55.350977 0 0 1-40.406214 16.605293zM650.373984 567.624273a55.350977 55.350977 0 0 1-55.350977-55.350978 384.412538 384.412538 0 0 1 381.644988-387.456841h136.163405L1081.834852 94.096662A55.350977 55.350977 0 0 1 1160.43324 16.605293l124.262944 125.923474A55.350977 55.350977 0 0 1 1245.396991 236.625428h-268.728996a273.710583 273.710583 0 0 0-270.943034 276.754887 55.350977 55.350977 0 0 1-55.350977 54.243958zM528.048324 308.304944a55.350977 55.350977 0 0 1-34.871116-12.45397A264.854427 264.854427 0 0 0 323.803218 235.241654H55.350977a55.350977 55.350977 0 0 1 0-110.701955h268.452241a379.43095 379.43095 0 0 1 239.116222 85.794015 55.350977 55.350977 0 0 1-35.147871 98.247985z" fill="#ffffff" p-id="10624"></path><path d="M323.803218 897.239343H55.350977a55.350977 55.350977 0 0 1 0-110.701955h268.452241a273.710583 273.710583 0 0 0 271.219789-276.754887 55.350977 55.350977 0 0 1 110.701954 0 384.412538 384.412538 0 0 1-381.921743 387.456842z" fill="#ffffff" p-id="10625"></path></svg>