<?xml version="1.0" standalone="no"?><!DOCTYPE svg PUBLIC "-//W3C//DTD SVG 1.1//EN" "http://www.w3.org/Graphics/SVG/1.1/DTD/svg11.dtd"><svg t="1536040661193" class="icon" style="" viewBox="0 0 1024 1024" version="1.1" xmlns="http://www.w3.org/2000/svg" p-id="8580" xmlns:xlink="http://www.w3.org/1999/xlink" width="32" height="32"><defs><style type="text/css"></style></defs><path d="M602.8 810.7c0 82.7 68.5 150 152.6 150S908 893.4 908 810.7s-68.5-150-152.6-150c-41.3 0-79.9 15.9-108.8 44.9l-3.6 3.6-4.4-2.5L383.1 562l2.1-5.2c6.6-16.2 9.9-33.4 9.9-51.1 0-14.9-2.4-29.5-7.1-43.6l-1.6-4.7 244-160 3.8 3.6c26.4 24.7 61 38.3 97.3 38.3 77.9 0 141.2-62.2 141.2-138.8 0-76.5-63.3-138.8-141.2-138.8-77.8 0-141.2 62.2-141.2 138.8 0 14.8 2.4 29.5 7.2 43.6l1.6 4.7-4.2 2.7-239.7 157.4-3.8-3.6c-26.4-24.7-61-38.4-97.4-38.4-77.8 0-141.2 62.2-141.2 138.8 0 76.5 63.3 138.7 141.2 138.7 33.3 0 65.6-11.6 90.9-32.7l3.5-2.9 264 149.6-1.7 5c-5.2 15-7.9 31-7.9 47.3z m152.6-84.6c47.6 0 86.2 38 86.2 84.7s-38.7 84.7-86.2 84.7-86.1-38-86.1-84.7c0-46.8 38.7-84.7 86.1-84.7z m-23.8-598c40.7 0 73.8 32.5 73.8 72.4 0 40-33.1 72.5-73.8 72.5s-73.8-32.5-73.8-72.5c0-39.9 33.1-72.4 73.8-72.4zM254 578.1c-40.7 0-73.8-32.5-73.8-72.4 0-40 33.1-72.5 73.8-72.5 40.6 0 73.7 32.5 73.7 72.5 0 39.9-33.1 72.4-73.7 72.4z" fill="#ffffff" p-id="8581"></path></svg>