<?xml version="1.0" standalone="no"?><!DOCTYPE svg PUBLIC "-//W3C//DTD SVG 1.1//EN" "http://www.w3.org/Graphics/SVG/1.1/DTD/svg11.dtd"><svg t="1536039664121" class="icon" style="" viewBox="0 0 1026 1024" version="1.1" xmlns="http://www.w3.org/2000/svg" p-id="7562" xmlns:xlink="http://www.w3.org/1999/xlink" width="32.0625" height="32"><defs><style type="text/css"></style></defs><path d="M590.424 737.763V337.99H541.027a249.353 249.353 0 0 1-50.391 39.149 237.235 237.235 0 0 1-57.059 23.468v64.961a226.25 226.25 0 0 0 91.267-48.661V738.01l65.58-0.247z m0 0" p-id="7563" fill="#ffffff"></path><path d="M1011.484 812.727c-12.7-12.384-32.958-12.384-45.664 0-72.893 85.566-179.319 135.3-291.725 136.314H452.581c-213.996-0.01-387.469-173.491-387.469-387.485 0-213.996 173.474-387.475 387.469-387.486h309.444v113.145a12.27 12.27 0 1 0 18.398 10.907l232.427-136.32a12.276 12.276 0 0 0 6.033-10.563c0-4.344-2.298-8.363-6.033-10.567L780.423 8.443a12.259 12.259 0 0 0-12.388 0.072 12.253 12.253 0 0 0-6.01 10.837v92.695H452.581c-249.954 0-452.581 202.627-452.581 452.581 0 249.948 202.627 452.575 452.581 452.575h220.834c130.71-0.159 254.971-56.818 340.795-155.404a32.692 32.692 0 0 0 9.739-25.149 32.694 32.694 0 0 0-12.465-23.923z m0 0" p-id="7564" fill="#ffffff"></path></svg>