<?xml version="1.0" standalone="no"?><!DOCTYPE svg PUBLIC "-//W3C//DTD SVG 1.1//EN" "http://www.w3.org/Graphics/SVG/1.1/DTD/svg11.dtd"><svg t="1536040002729" class="icon" style="" viewBox="0 0 1024 1024" version="1.1" xmlns="http://www.w3.org/2000/svg" p-id="6597" xmlns:xlink="http://www.w3.org/1999/xlink" width="32" height="32"><defs><style type="text/css"></style></defs><path d="M17.066667 512 17.066667 512C17.066667 785.384513 238.634073 1006.933333 512 1006.933333 785.384513 1006.933333 1006.933333 785.365927 1006.933333 512 1006.933333 238.615487 785.365927 17.066667 512 17.066667 238.615487 17.066667 17.066667 238.634073 17.066667 512L17.066667 512ZM0 512C0 229.230208 229.168034 0 512 0 794.769792 0 1024 229.168034 1024 512 1024 794.769792 794.831966 1024 512 1024 229.230208 1024 0 794.831966 0 512L0 512Z" p-id="6598" fill="#ffffff"></path><path d="M358.4 358.4l102.4 0 0 307.2-102.4 0 0-307.2Z" p-id="6599" fill="#ffffff"></path><path d="M580.266667 358.4l102.4 0 0 307.2-102.4 0 0-307.2Z" p-id="6600" fill="#ffffff"></path></svg>