<?xml version="1.0" standalone="no"?><!DOCTYPE svg PUBLIC "-//W3C//DTD SVG 1.1//EN" "http://www.w3.org/Graphics/SVG/1.1/DTD/svg11.dtd"><svg t="1536042790566" class="icon" style="" viewBox="0 0 1024 1024" version="1.1" xmlns="http://www.w3.org/2000/svg" p-id="9289" xmlns:xlink="http://www.w3.org/1999/xlink" width="32" height="32"><defs><style type="text/css"></style></defs><path d="M921.9 548.6H199.1l206 205.8c15.6 15.6 15.6 38.6 0 54.4-15.6 15.6-38.6 15.6-54.4 0L78.8 537.1H75s0-3.8-3.8-3.8c-3.8-3.8-3.8-7.7-7.7-11.5V518c0-11.5 0-23.3 11.5-31.1h3.8L350.7 215c15.6-15.6 38.6-15.6 54.4 0 15.6 15.6 15.6 38.6 0 54.4l-206 206h722.7c23.3 0 38.6 15.6 38.6 38.6 0.6 19-15.2 34.6-38.5 34.6z" p-id="9290" fill="#ffffff"></path></svg>