<?xml version="1.0" standalone="no"?><!DOCTYPE svg PUBLIC "-//W3C//DTD SVG 1.1//EN" "http://www.w3.org/Graphics/SVG/1.1/DTD/svg11.dtd"><svg t="1535789651012" class="icon" style="" viewBox="0 0 1170 1024" version="1.1" xmlns="http://www.w3.org/2000/svg" p-id="3268" xmlns:xlink="http://www.w3.org/1999/xlink" width="36.5625" height="32"><defs><style type="text/css"></style></defs><path d="M292.571429 0h585.142857a292.571429 292.571429 0 0 1 292.571428 292.571429v438.857142a292.571429 292.571429 0 0 1-292.571428 292.571429H292.571429a292.571429 292.571429 0 0 1-292.571429-292.571429V292.571429a292.571429 292.571429 0 0 1 292.571429-292.571429z m0 73.142857a219.428571 219.428571 0 0 0-219.428572 219.428572v438.857142a219.428571 219.428571 0 0 0 219.428572 219.428572h585.142857a219.428571 219.428571 0 0 0 219.428571-219.428572V292.571429a219.428571 219.428571 0 0 0-219.428571-219.428572H292.571429z m479.524571 424.521143c-32.256-25.088-78.116571-53.833143-128.073143-80.603429a1006.08 1006.08 0 0 0-139.410286-62.683428 382.317714 382.317714 0 0 0-29.037714-8.850286c-1.536 6.729143-2.925714 14.555429-4.315428 23.186286-5.851429 38.619429-8.704 90.550857-7.899429 145.481143 0.731429 53.613714 4.900571 106.057143 11.410286 145.408 0.877714 5.558857 1.828571 10.752 2.779428 15.579428 6.436571-1.974857 13.385143-4.242286 20.845715-6.948571 40.374857-14.336 91.428571-37.083429 141.604571-63.122286 51.712-26.770286 98.596571-55.076571 131.657143-79.433143 6.582857-4.900571 12.434286-9.581714 17.627428-13.897143a371.492571 371.492571 0 0 0-17.188571-14.116571zM877.714286 512.658286c0 72.045714-395.629714 267.483429-445.366857 240.64-49.737143-26.916571-62.610286-447.488 0-481.28C494.957714 238.08 877.714286 440.466286 877.714286 512.585143z" fill="#ffffff" p-id="3269"></path></svg>